<svg viewBox="0 0 100 100" xmlns="http://www.w3.org/2000/svg">
  <defs>
    <linearGradient id="diamondGrad" x1="0%" y1="0%" x2="100%" y2="100%">
      <stop offset="0%" style="stop-color:#87CEEB"/>
      <stop offset="25%" style="stop-color:#E0FFFF"/>
      <stop offset="50%" style="stop-color:#87CEEB"/>
      <stop offset="75%" style="stop-color:#E0FFFF"/>
      <stop offset="100%" style="stop-color:#87CEEB"/>
    </linearGradient>
  </defs>
  <circle cx="50" cy="50" r="47" fill="none" stroke="url(#diamondGrad)" stroke-width="4"/>
  <!-- Diamond shapes -->
  <g fill="none" stroke="#87CEEB" stroke-width="1.5">
    <polygon points="50,3 54,9 50,15 46,9"/>
    <polygon points="50,3 54,9 50,15 46,9" transform="rotate(45 50 50)"/>
    <polygon points="50,3 54,9 50,15 46,9" transform="rotate(90 50 50)"/>
    <polygon points="50,3 54,9 50,15 46,9" transform="rotate(135 50 50)"/>
    <polygon points="50,3 54,9 50,15 46,9" transform="rotate(180 50 50)"/>
    <polygon points="50,3 54,9 50,15 46,9" transform="rotate(225 50 50)"/>
    <polygon points="50,3 54,9 50,15 46,9" transform="rotate(270 50 50)"/>
    <polygon points="50,3 54,9 50,15 46,9" transform="rotate(315 50 50)"/>
  </g>
</svg>