<svg viewBox="0 0 100 100" xmlns="http://www.w3.org/2000/svg">
  <defs>
    <linearGradient id="starGrad" x1="0%" y1="0%" x2="100%" y2="100%">
      <stop offset="0%" style="stop-color:#FFD700"/>
      <stop offset="100%" style="stop-color:#FF8C00"/>
    </linearGradient>
  </defs>
  <circle cx="50" cy="50" r="46" fill="none" stroke="url(#starGrad)" stroke-width="2"/>
  <circle cx="50" cy="50" r="48" fill="none" stroke="url(#starGrad)" stroke-width="1" stroke-dasharray="4 2"/>
  <!-- Stars around -->
  <g fill="#FFD700">
    <polygon points="50,2 52,8 58,8 53,12 55,18 50,14 45,18 47,12 42,8 48,8" transform="rotate(0 50 50)"/>
    <polygon points="50,2 52,8 58,8 53,12 55,18 50,14 45,18 47,12 42,8 48,8" transform="rotate(72 50 50)"/>
    <polygon points="50,2 52,8 58,8 53,12 55,18 50,14 45,18 47,12 42,8 48,8" transform="rotate(144 50 50)"/>
    <polygon points="50,2 52,8 58,8 53,12 55,18 50,14 45,18 47,12 42,8 48,8" transform="rotate(216 50 50)"/>
    <polygon points="50,2 52,8 58,8 53,12 55,18 50,14 45,18 47,12 42,8 48,8" transform="rotate(288 50 50)"/>
  </g>
</svg>